
<svg width="170" height="40" viewBox="0 0 170 40" fill="none" xmlns="http://www.w3.org/2000/svg">
  <path d="M30.4 10H24V30H30.4C37.8 30 42 25.4 42 20C42 14.6 37.8 10 30.4 10ZM30.2 25.6H28.6V14.4H30.2C34.2 14.4 37.2 16.6 37.2 20C37.2 23.4 34.2 25.6 30.2 25.6Z" fill="white"/>
  <path d="M52 14.2V10H43V30H52V25.8H47.6V22H51.4V17.8H47.6V14.2H52Z" fill="white"/>
  <path d="M63.8 10H54.8V30H59.4V24.4H63.8C68.4 24.4 71 21.6 71 17.2C71 12.8 68.4 10 63.8 10ZM63.2 20H59.4V14.4H63.2C65 14.4 66.4 15.4 66.4 17.2C66.4 19 65 20 63.2 20Z" fill="white"/>
  <path d="M88.6 20C88.6 14.4 84.4 10 78.6 10C72.8 10 68.6 14.4 68.6 20C68.6 25.6 72.8 30 78.6 30C84.4 30 88.6 25.6 88.6 20ZM73.4 20C73.4 17 75.6 14.6 78.6 14.6C81.6 14.6 83.8 17 83.8 20C83.8 23 81.6 25.4 78.6 25.4C75.6 25.4 73.4 23 73.4 20Z" fill="white"/>
  <path d="M104.8 10L99.8 23L94.6 10H89.6L97.6 30H101.6L109.6 10H104.8Z" fill="white"/>
  <path d="M120.8 10H111.8V30H116.4V24.4H120.8C125.4 24.4 128 21.6 128 17.2C128 12.8 125.4 10 120.8 10ZM120.2 20H116.4V14.4H120.2C122 14.4 123.4 15.4 123.4 17.2C123.4 19 122 20 120.2 20Z" fill="white"/>
  <path d="M146 10H140.2L135.4 17.2L130.6 10H124.8L133 21.4V30H137.6V21.4L146 10Z" fill="white"/>
</svg>
