
<svg width="170" height="40" viewBox="0 0 170 40" fill="none" xmlns="http://www.w3.org/2000/svg">
  <path d="M85 10.5L97.3 17.25V30.75L85 37.5L72.7 30.75V17.25L85 10.5ZM85 15.75L78.2 19.65V27.35L85 31.25L91.8 27.35V19.65L85 15.75Z" fill="white"/>
  <path d="M54 15H46V20H50C50 23.3 47.3 26 44 26C40.7 26 38 23.3 38 20C38 16.7 40.7 14 44 14C45.8 14 47.4 14.8 48.4 16.1L53.6 13.4C51.5 10.2 48 8 44 8C37.4 8 32 13.4 32 20C32 26.6 37.4 32 44 32C50.6 32 56 26.6 56 20V15H54ZM118 20C118 13.4 112.6 8 106 8C99.4 8 94 13.4 94 20C94 26.6 99.4 32 106 32C112.6 32 118 26.6 118 20ZM100 20C100 16.7 102.7 14 106 14C109.3 14 112 16.7 112 20C112 23.3 109.3 26 106 26C102.7 26 100 23.3 100 20ZM125.1 8.4C123.4 8.4 122 9.8 122 11.5C122 13.2 123.4 14.6 125.1 14.6C126.8 14.6 128.2 13.2 128.2 11.5C128.2 9.8 126.9 8.4 125.1 8.4ZM122.5 17V32H127.5V17H122.5ZM136.9 11V17H133.9V22H136.9V32H141.9V22H144.9V17H141.9V11H136.9ZM63 17V32H68V17H63Z" fill="white"/>
</svg>
