
<svg width="170" height="40" viewBox="0 0 170 40" fill="none" xmlns="http://www.w3.org/2000/svg">
  <path d="M50 15H34V19H40V29H44V19H50V15ZM73 15H57V19H65V21H57V25H65V29H73V25H65V21H73V15ZM96 15H80V29H96V25H84V24H96V20H84V19H96V15ZM118 15H107C104.8 15 103 16.8 103 19V25C103 27.2 104.8 29 107 29H118C120.2 29 122 27.2 122 25V19C122 16.8 120.2 15 118 15ZM118 25H107V19H118V25ZM145 15H129V29H133V24H145C146.1 24 147 23.1 147 22V17C147 15.9 146.1 15 145 15ZM143 22H133V19H143V22Z" fill="white"/>
</svg>
