
<svg width="170" height="40" viewBox="0 0 170 40" fill="none" xmlns="http://www.w3.org/2000/svg">
  <path d="M38 10H34V30H38V10Z" fill="white"/>
  <path d="M46 10H42V30H46V10Z" fill="white"/>
  <path d="M58 10H54V22L46 10H42V30H46V18L54 30H58V10Z" fill="white"/>
  <path d="M72 22H64V26H76V30H60V10H76V14H64V18H72V22Z" fill="white"/>
  <path d="M94 22C94 26.4 90.4 30 86 30C81.6 30 78 26.4 78 22C78 17.6 81.6 14 86 14C89 14 91.6 15.6 93 18L89.6 20.4C89 19.2 87.6 18.4 86 18.4C84 18.4 82.4 20 82.4 22C82.4 24 84 25.6 86 25.6C87.6 25.6 89 24.8 89.6 23.6L93 26C91.6 28.4 89 30 86 30Z" fill="white"/>
  <path d="M112 22C112 26.4 108.4 30 104 30C99.6 30 96 26.4 96 22C96 17.6 99.6 14 104 14C108.4 14 112 17.6 112 22ZM107.6 22C107.6 20 106 18.4 104 18.4C102 18.4 100.4 20 100.4 22C100.4 24 102 25.6 104 25.6C106 25.6 107.6 24 107.6 22Z" fill="white"/>
  <path d="M130 14H126V16C124.8 14.8 123.2 14 121.6 14C117.6 14 114.4 17.6 114.4 22C114.4 26.4 117.6 30 121.6 30C123.2 30 124.8 29.2 126 28V30H130V14ZM125.6 22C125.6 24 124 25.6 122 25.6C120 25.6 118.4 24 118.4 22C118.4 20 120 18.4 122 18.4C124 18.4 125.6 20 125.6 22Z" fill="white"/>
  <path d="M138 14H134V30H138V14Z" fill="white"/>
  <path d="M138 8H134V12H138V8Z" fill="white"/>
</svg>
