
<svg width="170" height="40" viewBox="0 0 170 40" fill="none" xmlns="http://www.w3.org/2000/svg">
  <path d="M32 12L39 28H36L34 23H27L25 28H22L29 12H32ZM33 20L30.5 14L28 20H33Z" fill="white"/>
  <path d="M46 15V18C45 16.3 43.8 15 41 15C37.7 15 35 17.7 35 21C35 24.3 37.7 27 41 27C43.8 27 45 25.7 46 24V27H49V15H46ZM41.5 24C39.6 24 38 22.7 38 21C38 19.3 39.6 18 41.5 18C43.4 18 45 19.3 45 21C45 22.7 43.4 24 41.5 24Z" fill="white"/>
  <path d="M60 18C60 16.3 61.3 15 63 15C64.3 15 65.4 15.8 66 17L69 15.5C67.9 13.3 65.6 12 63 12C59.1 12 56 14.7 56 18C56 21.3 59.1 24 63 24C65.6 24 67.9 22.7 69 20.5L66 19C65.4 20.2 64.3 21 63 21C61.3 21 60 19.7 60 18Z" fill="white"/>
  <path d="M85 12H82V24H85V12Z" fill="white"/>
  <path d="M87 18C87 21.3 89.7 24 93 24C96.3 24 99 21.3 99 18C99 14.7 96.3 12 93 12C89.7 12 87 14.7 87 18ZM90 18C90 16.3 91.3 15 93 15C94.7 15 96 16.3 96 18C96 19.7 94.7 21 93 21C91.3 21 90 19.7 90 18Z" fill="white"/>
  <path d="M114 12H111V17C110 15.4 108.7 15 107 15C103.7 15 101 17.7 101 21C101 24.3 103.7 27 107 27C108.7 27 110 26.6 111 25V27H114V12ZM107.5 24C105.6 24 104 22.7 104 21C104 19.3 105.6 18 107.5 18C109.4 18 111 19.3 111 21C111 22.7 109.4 24 107.5 24Z" fill="white"/>
  <path d="M130 15H126L123 19L120 15H116L121 21L116 27H120L123 23L126 27H130L125 21L130 15Z" fill="white"/>
  <path d="M133 12H130V24H133V12Z" fill="white"/>
  <path d="M145 15H141V10H138V15H135V18H138V24H141V18H145V15Z" fill="white"/>
</svg>
